Coordinates
version=1
nRows=49
nColumns=12
inDegrees=yes

Units are S.I. units (second, meters, Newtons, ...)
Angles are in degrees

endheader
time	SC_y	SC_z	SC_x	AC_y	AC_z	AC_x	GH_y	GH_z	GH_yy	EL_x	PS_y
       0.0              -25.75        -0.3714          33.42          37.69         -14.18          5.163          82.81          52.41         -139.5          120.4          54.19
   0.03167              -25.75        -0.3667          33.42          37.69         -14.18          5.161          82.79          52.41         -139.5          120.3          54.19
   0.06334              -25.75        -0.3617          33.42          37.69         -14.18          5.159          82.77          52.42         -139.5          120.3           54.2
   0.09501              -25.75        -0.3564          33.43          37.69         -14.18          5.157          82.75          52.42         -139.5          120.3           54.2
    0.1267              -25.74        -0.3507          33.43          37.69         -14.18          5.155          82.73          52.43         -139.5          120.3           54.2
    0.1583              -25.74        -0.3447          33.43          37.69         -14.18          5.152          82.71          52.43         -139.5          120.3           54.2
      0.19              -25.74        -0.3382          33.44          37.69         -14.17          5.149          82.69          52.44         -139.6          120.3          54.21
    0.2217              -25.74        -0.3313          33.44          37.69         -14.17          5.147          82.66          52.44         -139.6          120.3          54.21
    0.2534              -25.73        -0.3239          33.45          37.69         -14.17          5.144          82.64          52.45         -139.6          120.3          54.21
     0.285              -25.73         -0.316          33.45          37.69         -14.17           5.14          82.61          52.45         -139.6          120.3          54.22
    0.3167              -25.73        -0.3075          33.46          37.69         -14.17          5.137          82.58          52.46         -139.6          120.2          54.22
    0.3484              -25.73        -0.2984          33.46          37.69         -14.17          5.133          82.54          52.47         -139.6          120.2          54.23
      0.38              -25.72        -0.2885          33.47          37.69         -14.17          5.129          82.51          52.48         -139.6          120.2          54.23
    0.4117              -25.72        -0.2778          33.47          37.69         -14.17          5.125          82.47          52.49         -139.6          120.2          54.23
    0.4434              -25.71        -0.2663          33.48          37.68         -14.17           5.12          82.43          52.49         -139.6          120.2          54.24
     0.475              -25.71        -0.2538          33.49          37.68         -14.17          5.115          82.38           52.5         -139.6          120.1          54.25
    0.5067              -25.71        -0.2402           33.5          37.68         -14.17          5.109          82.33          52.52         -139.6          120.1          54.25
    0.5384               -25.7        -0.2253           33.5          37.68         -14.16          5.103          82.28          52.53         -139.7          120.1          54.26
      0.57              -25.69        -0.2092          33.51          37.68         -14.16          5.097          82.22          52.54         -139.7          120.1          54.27
    0.6017              -25.69        -0.1915          33.52          37.68         -14.16           5.09          82.16          52.55         -139.7          120.0          54.28
    0.6334              -25.68         -0.172          33.54          37.68         -14.16          5.082          82.09          52.57         -139.7          120.0          54.29
     0.665              -25.67        -0.1506          33.55          37.68         -14.16          5.073          82.01          52.59         -139.7          120.0           54.3
    0.6967              -25.67         -0.127          33.56          37.67         -14.16          5.063          81.92           52.6         -139.8          119.9          54.31
    0.7284              -25.66        -0.1008          33.58          37.67         -14.15          5.053          81.83          52.63         -139.8          119.9          54.32
    0.7601              -25.65       -0.07163          33.59          37.67         -14.15          5.041          81.72          52.65         -139.8          119.8          54.33
    0.7917              -25.63       -0.03913          33.61          37.67         -14.15          5.028          81.61          52.67         -139.8          119.8          54.35
    0.8234              -25.62      -0.002728          33.63          37.67         -14.15          5.013          81.47           52.7         -139.9          119.7          54.37
    0.8551              -25.61        0.03822          33.66          37.66         -14.14          4.996          81.33          52.74         -139.9          119.6          54.38
    0.8867              -25.59         0.0845          33.69          37.66         -14.14          4.977          81.16          52.77         -140.0          119.6          54.41
    0.9184              -25.57          0.137          33.72          37.66         -14.13          4.956          80.97          52.81         -140.0          119.5          54.43
    0.9501              -25.55          0.197          33.75          37.65         -14.13          4.931          80.75          52.86         -140.1          119.4          54.46
    0.9817              -25.53         0.2658          33.79          37.65         -14.12          4.903           80.5          52.92         -140.1          119.3          54.49
     1.013               -25.5         0.3453          33.84          37.64         -14.11          4.871          80.21          52.98         -140.2          119.1          54.53
     1.045              -25.47         0.4376          33.89          37.64         -14.11          4.833          79.88          53.05         -140.3          119.0          54.57
     1.077              -25.43         0.5456          33.96          37.63          -14.1          4.789          79.49          53.14         -140.4          118.8          54.63
     1.108              -25.38          0.673          34.03          37.62         -14.08          4.737          79.03          53.24         -140.5          118.6          54.69
      1.14              -25.33         0.8243          34.12          37.61         -14.07          4.676          78.48          53.36         -140.7          118.3          54.76
     1.172              -25.27          1.006          34.22           37.6         -14.05          4.602          77.82           53.5         -140.9          118.0          54.84
     1.203              -25.19          1.225          34.35          37.58         -14.04          4.512          77.03          53.68         -141.1          117.6          54.95
     1.235               -25.1          1.493          34.51          37.56         -14.01          4.403          76.06          53.89         -141.3          117.2          55.07
     1.267              -24.98          1.824           34.7          37.54         -13.98          4.268          74.86          54.15         -141.7          116.6          55.23
     1.298              -24.84          2.237          34.94          37.51         -13.95            4.1          73.37          54.48         -142.1          115.9          55.43
      1.33              -24.65          2.757          35.25          37.47          -13.9          3.888          71.49          54.89         -142.6          115.0          55.67
     1.362              -24.42          3.417          35.63          37.43         -13.84          3.619           69.1          55.41         -143.2          113.8          55.99
     1.393              -24.13          4.263          36.13          37.37         -13.76          3.275          66.04          56.09         -144.1          112.4          56.39
     1.425              -23.74          5.348          36.76          37.29         -13.67          2.832          62.11          56.95         -145.1          110.5           56.9
     1.457              -23.26          6.735          37.57          37.19         -13.54          2.268           57.1          58.05         -146.5          108.2          57.56
     1.488              -22.65          8.478          38.59          37.07         -13.39          1.557          50.79          59.43         -148.2          105.2          58.39
      1.52               -21.9           10.6          39.83          36.92          -13.2         0.6918          43.11          61.11         -150.3          101.5          59.39
